<svg width="10" height="10" viewBox="0 0 10 10" fill="none" xmlns="http://www.w3.org/2000/svg">
<path d="M5 10C7.07125 10 8.75 8.75 8.75 6.5625C8.75 5.625 8.4375 4.0625 7.1875 2.8125C7.34375 3.75 6.40625 4.0625 6.40625 4.0625C6.875 2.5 5.625 0.3125 3.75 0C3.97312 1.25 4.0625 2.5 2.5 3.75C1.71875 4.375 1.25 5.45563 1.25 6.5625C1.25 8.75 2.92875 10 5 10ZM5 9.375C3.96438 9.375 3.125 8.75 3.125 7.65625C3.125 7.1875 3.28125 6.40625 3.90625 5.78125C3.82812 6.25 4.375 6.5625 4.375 6.5625C4.14062 5.78125 4.6875 4.53125 5.625 4.375C5.51312 5 5.46875 5.625 6.25 6.25C6.64062 6.5625 6.875 7.1025 6.875 7.65625C6.875 8.75 6.03562 9.375 5 9.375Z" fill="#777778"/>
</svg>
