<svg width="9" height="10" viewBox="0 0 9 10" fill="none" xmlns="http://www.w3.org/2000/svg">
<path d="M5.375 4.11111V7.22222M3.625 4.11111V7.22222M1.875 2.33333V7.57778C1.875 8.0756 1.875 8.32434 1.97037 8.51449C2.05426 8.68174 2.18802 8.81799 2.35266 8.90321C2.53965 9 2.78456 9 3.27365 9H5.72635C6.21544 9 6.46 9 6.64699 8.90321C6.81163 8.81799 6.94583 8.68174 7.02972 8.51449C7.125 8.32453 7.125 8.076 7.125 7.57915V2.33333M1.875 2.33333H2.75M1.875 2.33333H1M2.75 2.33333H6.25M2.75 2.33333C2.75 1.91916 2.75 1.71218 2.81661 1.54883C2.90541 1.33103 3.07564 1.15788 3.29004 1.06766C3.45084 1 3.6548 1 4.0625 1H4.9375C5.3452 1 5.54905 1 5.70985 1.06766C5.92425 1.15788 6.09454 1.33103 6.18335 1.54883C6.24995 1.71218 6.25 1.91916 6.25 2.33333M6.25 2.33333H7.125M7.125 2.33333H8" stroke="#525252" stroke-linecap="round" stroke-linejoin="round"/>
</svg>
