<svg width="9" height="9" viewBox="0 0 9 9" fill="none" xmlns="http://www.w3.org/2000/svg">
<path d="M4.50004 2.66668L0.833374 6.33335V8.16668L2.66671 8.16667L6.33337 4.50001M4.50004 2.66668L5.81483 1.35188L5.81562 1.3511C5.99661 1.17011 6.08726 1.07946 6.19176 1.0455C6.28382 1.01559 6.38298 1.01559 6.47504 1.0455C6.57946 1.07943 6.67001 1.16999 6.85074 1.35072L7.64815 2.14812C7.82966 2.32963 7.92046 2.42043 7.95446 2.52508C7.98437 2.61713 7.98436 2.71629 7.95445 2.80834C7.92047 2.91292 7.82981 3.00358 7.64856 3.18482L7.64816 3.18521L6.33337 4.50001M4.50004 2.66668L6.33337 4.50001" stroke="#525252" stroke-width="0.8" stroke-linecap="round" stroke-linejoin="round"/>
</svg>
