<svg width="20" height="20" viewBox="0 0 20 20" fill="none" xmlns="http://www.w3.org/2000/svg">
<circle cx="10" cy="10" r="10" fill="white"/>
<g clip-path="url(#clip0_32_170)">
<path d="M6.07019 8.73763C5.92662 8.60485 6.00461 8.36483 6.1988 8.3418L8.95044 8.01543C9.02959 8.00604 9.09833 7.95634 9.13171 7.88397L10.2923 5.36782C10.3742 5.19024 10.6267 5.19021 10.7086 5.36778L11.8692 7.88392C11.9026 7.95629 11.9709 8.00612 12.05 8.01551L14.8018 8.3418C14.996 8.36483 15.0738 8.60492 14.9302 8.7377L12.8961 10.6191C12.8375 10.6733 12.8115 10.7538 12.827 10.832L13.3669 13.5497C13.405 13.7416 13.2009 13.8902 13.0302 13.7946L10.6124 12.4409C10.5428 12.402 10.4583 12.4021 10.3888 12.4411L7.97066 13.7943C7.80002 13.8898 7.59551 13.7415 7.63363 13.5497L8.17357 10.8321C8.1891 10.754 8.16311 10.6732 8.1046 10.6191L6.07019 8.73763Z" stroke="black" stroke-width="0.8" stroke-linecap="round" stroke-linejoin="round"/>
</g>
<defs>
<clipPath id="clip0_32_170">
<rect width="11" height="11" fill="white" transform="translate(5 4)"/>
</clipPath>
</defs>
</svg>
