<svg width="9" height="9" viewBox="0 0 9 9" fill="none" xmlns="http://www.w3.org/2000/svg">
<g clip-path="url(#clip0_13_52)">
<path d="M4.78125 3.15002C4.78125 3.07543 4.75162 3.0039 4.69887 2.95115C4.64613 2.89841 4.57459 2.86877 4.5 2.86877C4.42541 2.86877 4.35387 2.89841 4.30113 2.95115C4.24838 3.0039 4.21875 3.07543 4.21875 3.15002V4.78127H2.53125C2.45666 4.78127 2.38512 4.81091 2.33238 4.86365C2.27963 4.9164 2.25 4.98793 2.25 5.06252C2.25 5.13712 2.27963 5.20865 2.33238 5.2614C2.38512 5.31414 2.45666 5.34377 2.53125 5.34377H4.5C4.57459 5.34377 4.64613 5.31414 4.69887 5.2614C4.75162 5.20865 4.78125 5.13712 4.78125 5.06252V3.15002Z" fill="#929292"/>
<path d="M3.65625 0.5625C3.65625 0.487908 3.68588 0.416371 3.73862 0.363626C3.79137 0.310882 3.8629 0.28125 3.9375 0.28125H5.0625C5.13709 0.28125 5.20863 0.310882 5.26137 0.363626C5.31412 0.416371 5.34375 0.487908 5.34375 0.5625C5.34375 0.637092 5.31412 0.708629 5.26137 0.761374C5.20863 0.814118 5.13709 0.84375 5.0625 0.84375V1.16437C5.8275 1.27462 6.52162 1.60312 7.0785 2.08687L7.08525 2.07956L7.28437 1.88044L7.08525 1.68187C7.03244 1.62914 7.00274 1.55758 7.00268 1.48295C7.00263 1.40832 7.03223 1.33672 7.08497 1.28391C7.1377 1.2311 7.20926 1.2014 7.28389 1.20134C7.35853 1.20129 7.43012 1.23089 7.48293 1.28363L8.27831 2.07956C8.30517 2.10551 8.3266 2.13654 8.34134 2.17086C8.35608 2.20517 8.36384 2.24207 8.36416 2.27942C8.36449 2.31676 8.35737 2.3538 8.34323 2.38836C8.32909 2.42293 8.3082 2.45433 8.2818 2.48074C8.25539 2.50714 8.22399 2.52803 8.18942 2.54217C8.15486 2.55631 8.11782 2.56343 8.08048 2.5631C8.04313 2.56278 8.00623 2.55502 7.97191 2.54028C7.9376 2.52554 7.90657 2.50411 7.88062 2.47725L7.68206 2.27813L7.48293 2.47725L7.47562 2.484C8.04835 3.14514 8.38462 3.97816 8.43139 4.85161C8.47815 5.72507 8.23274 6.58924 7.73388 7.30774C7.23502 8.02625 6.51111 8.55819 5.67638 8.81963C4.84166 9.08107 3.94364 9.05712 3.12404 8.75156C2.30444 8.446 1.60991 7.87623 1.15006 7.13215C0.690205 6.38808 0.491204 5.51206 0.584458 4.64234C0.677711 3.77262 1.05791 2.9587 1.66506 2.32903C2.27221 1.69936 3.07174 1.28979 3.9375 1.16494V0.84375C3.8629 0.84375 3.79137 0.814118 3.73862 0.761374C3.68588 0.708629 3.65625 0.637092 3.65625 0.5625ZM4.5 1.6875C4.05679 1.68754 3.61792 1.77487 3.20846 1.94451C2.799 2.11416 2.42697 2.36279 2.11359 2.67621C1.48071 3.3092 1.1252 4.16768 1.12528 5.06278C1.12535 5.95789 1.481 6.8163 2.11399 7.44918C2.74698 8.08207 3.60545 8.43757 4.50056 8.4375C5.39567 8.43743 6.25408 8.08177 6.88696 7.44879C7.51984 6.8158 7.87535 5.95732 7.87528 5.06222C7.8752 4.16711 7.51955 3.3087 6.88656 2.67582C6.25358 2.04293 5.3951 1.68743 4.5 1.6875Z" fill="#777778"/>
</g>
<defs>
<clipPath id="clip0_13_52">
<rect width="9" height="9" fill="white"/>
</clipPath>
</defs>
</svg>
